<mxfile host="Electron" modified="2023-11-27T16:34:27.351Z" agent="Mozilla/5.0 (Windows NT 10.0; Win64; x64) AppleWebKit/537.36 (KHTML, like Gecko) draw.io/22.1.2 Chrome/114.0.5735.289 Electron/25.9.4 Safari/537.36" etag="ohFj5WY34gsjlQkZKcpc" version="22.1.2" type="device">
  <diagram name="Page-1" id="rMYhNSDy2flbsHPhGYpy">
    <mxGraphModel dx="1098" dy="838" grid="1" gridSize="10" guides="1" tooltips="1" connect="1" arrows="1" fold="1" page="1" pageScale="1" pageWidth="1169" pageHeight="827" math="0" shadow="0">
      <root>
        <mxCell id="0" />
        <mxCell id="1" parent="0" />
        <mxCell id="1hcTGLioYm_f8Yc_MBZk-5" value="" style="edgeStyle=orthogonalEdgeStyle;rounded=0;orthogonalLoop=1;jettySize=auto;html=1;" parent="1" source="1hcTGLioYm_f8Yc_MBZk-1" target="1hcTGLioYm_f8Yc_MBZk-4" edge="1">
          <mxGeometry relative="1" as="geometry" />
        </mxCell>
        <mxCell id="1hcTGLioYm_f8Yc_MBZk-1" value="App_ObjectCounter" style="rounded=0;whiteSpace=wrap;html=1;" parent="1" vertex="1">
          <mxGeometry x="40" y="40" width="120" height="60" as="geometry" />
        </mxCell>
        <mxCell id="1hcTGLioYm_f8Yc_MBZk-7" value="IDLE" style="edgeStyle=orthogonalEdgeStyle;rounded=0;orthogonalLoop=1;jettySize=auto;html=1;" parent="1" source="1hcTGLioYm_f8Yc_MBZk-4" target="1hcTGLioYm_f8Yc_MBZk-6" edge="1">
          <mxGeometry relative="1" as="geometry" />
        </mxCell>
        <mxCell id="1hcTGLioYm_f8Yc_MBZk-9" value="" style="edgeStyle=orthogonalEdgeStyle;rounded=0;orthogonalLoop=1;jettySize=auto;html=1;" parent="1" source="1hcTGLioYm_f8Yc_MBZk-4" target="1hcTGLioYm_f8Yc_MBZk-8" edge="1">
          <mxGeometry relative="1" as="geometry" />
        </mxCell>
        <mxCell id="1hcTGLioYm_f8Yc_MBZk-4" value="case:&lt;br&gt;object_detect_state?" style="rhombus;whiteSpace=wrap;html=1;rounded=0;" parent="1" vertex="1">
          <mxGeometry x="60" y="170" width="80" height="80" as="geometry" />
        </mxCell>
        <mxCell id="1hcTGLioYm_f8Yc_MBZk-27" style="edgeStyle=orthogonalEdgeStyle;rounded=0;orthogonalLoop=1;jettySize=auto;html=1;exitX=1;exitY=0.5;exitDx=0;exitDy=0;entryX=0;entryY=0.5;entryDx=0;entryDy=0;" parent="1" source="1hcTGLioYm_f8Yc_MBZk-6" target="1hcTGLioYm_f8Yc_MBZk-25" edge="1">
          <mxGeometry relative="1" as="geometry" />
        </mxCell>
        <mxCell id="1hcTGLioYm_f8Yc_MBZk-6" value="&lt;ul&gt;&lt;li&gt;do nothing&lt;/li&gt;&lt;/ul&gt;" style="whiteSpace=wrap;html=1;rounded=0;align=left;" parent="1" vertex="1">
          <mxGeometry x="400" y="180" width="200" height="60" as="geometry" />
        </mxCell>
        <mxCell id="1hcTGLioYm_f8Yc_MBZk-14" value="FIRST_POS&lt;br&gt;_DETECT" style="edgeStyle=orthogonalEdgeStyle;rounded=0;orthogonalLoop=1;jettySize=auto;html=1;" parent="1" source="1hcTGLioYm_f8Yc_MBZk-8" target="1hcTGLioYm_f8Yc_MBZk-13" edge="1">
          <mxGeometry relative="1" as="geometry" />
        </mxCell>
        <mxCell id="1hcTGLioYm_f8Yc_MBZk-37" value="" style="edgeStyle=orthogonalEdgeStyle;rounded=0;orthogonalLoop=1;jettySize=auto;html=1;" parent="1" source="1hcTGLioYm_f8Yc_MBZk-8" target="1hcTGLioYm_f8Yc_MBZk-36" edge="1">
          <mxGeometry relative="1" as="geometry" />
        </mxCell>
        <mxCell id="1hcTGLioYm_f8Yc_MBZk-8" value="case:&lt;br&gt;object_detect_state?" style="rhombus;whiteSpace=wrap;html=1;rounded=0;" parent="1" vertex="1">
          <mxGeometry x="60" y="330" width="80" height="80" as="geometry" />
        </mxCell>
        <mxCell id="1hcTGLioYm_f8Yc_MBZk-28" style="edgeStyle=orthogonalEdgeStyle;rounded=0;orthogonalLoop=1;jettySize=auto;html=1;exitX=1;exitY=0.5;exitDx=0;exitDy=0;entryX=0;entryY=0.5;entryDx=0;entryDy=0;" parent="1" source="1hcTGLioYm_f8Yc_MBZk-13" target="1hcTGLioYm_f8Yc_MBZk-25" edge="1">
          <mxGeometry relative="1" as="geometry" />
        </mxCell>
        <mxCell id="1hcTGLioYm_f8Yc_MBZk-13" value="&lt;div style=&quot;text-align: left;&quot;&gt;&lt;ul&gt;&lt;li&gt;&lt;span style=&quot;background-color: initial;&quot;&gt;start countdown&lt;/span&gt;&lt;/li&gt;&lt;li&gt;&lt;span style=&quot;background-color: initial;&quot;&gt;object_detect_state = DETECT_ADD_REMOVE&lt;/span&gt;&lt;/li&gt;&lt;/ul&gt;&lt;/div&gt;" style="whiteSpace=wrap;html=1;rounded=0;" parent="1" vertex="1">
          <mxGeometry x="400" y="340" width="200" height="60" as="geometry" />
        </mxCell>
        <mxCell id="1hcTGLioYm_f8Yc_MBZk-18" value="DETECT&lt;br&gt;_ADD&lt;br&gt;_REMOVE" style="edgeStyle=orthogonalEdgeStyle;rounded=0;orthogonalLoop=1;jettySize=auto;html=1;" parent="1" source="1hcTGLioYm_f8Yc_MBZk-15" edge="1">
          <mxGeometry relative="1" as="geometry">
            <mxPoint x="240" y="700" as="targetPoint" />
          </mxGeometry>
        </mxCell>
        <mxCell id="1hcTGLioYm_f8Yc_MBZk-23" value="" style="edgeStyle=orthogonalEdgeStyle;rounded=0;orthogonalLoop=1;jettySize=auto;html=1;entryX=0;entryY=0.5;entryDx=0;entryDy=0;exitX=0.5;exitY=1;exitDx=0;exitDy=0;" parent="1" source="1hcTGLioYm_f8Yc_MBZk-15" target="1hcTGLioYm_f8Yc_MBZk-22" edge="1">
          <mxGeometry relative="1" as="geometry" />
        </mxCell>
        <mxCell id="1hcTGLioYm_f8Yc_MBZk-24" value="DEFAULT" style="edgeLabel;html=1;align=center;verticalAlign=middle;resizable=0;points=[];" parent="1hcTGLioYm_f8Yc_MBZk-23" vertex="1" connectable="0">
          <mxGeometry x="0.0905" y="-1" relative="1" as="geometry">
            <mxPoint x="-60" y="-168" as="offset" />
          </mxGeometry>
        </mxCell>
        <mxCell id="1hcTGLioYm_f8Yc_MBZk-15" value="case:&lt;br&gt;object_detect_state?" style="rhombus;whiteSpace=wrap;html=1;rounded=0;" parent="1" vertex="1">
          <mxGeometry x="60" y="660" width="80" height="80" as="geometry" />
        </mxCell>
        <mxCell id="1hcTGLioYm_f8Yc_MBZk-21" value="YES" style="edgeStyle=orthogonalEdgeStyle;rounded=0;orthogonalLoop=1;jettySize=auto;html=1;" parent="1" source="1hcTGLioYm_f8Yc_MBZk-19" target="1hcTGLioYm_f8Yc_MBZk-20" edge="1">
          <mxGeometry relative="1" as="geometry" />
        </mxCell>
        <mxCell id="1hcTGLioYm_f8Yc_MBZk-31" value="NO" style="edgeStyle=orthogonalEdgeStyle;rounded=0;orthogonalLoop=1;jettySize=auto;html=1;" parent="1" source="1hcTGLioYm_f8Yc_MBZk-19" target="1hcTGLioYm_f8Yc_MBZk-30" edge="1">
          <mxGeometry relative="1" as="geometry" />
        </mxCell>
        <mxCell id="1hcTGLioYm_f8Yc_MBZk-19" value="delta &amp;gt; reference?" style="rhombus;whiteSpace=wrap;html=1;" parent="1" vertex="1">
          <mxGeometry x="240" y="660" width="80" height="80" as="geometry" />
        </mxCell>
        <mxCell id="1hcTGLioYm_f8Yc_MBZk-29" style="edgeStyle=orthogonalEdgeStyle;rounded=0;orthogonalLoop=1;jettySize=auto;html=1;exitX=1;exitY=0.5;exitDx=0;exitDy=0;entryX=0;entryY=0.5;entryDx=0;entryDy=0;" parent="1" source="1hcTGLioYm_f8Yc_MBZk-20" target="1hcTGLioYm_f8Yc_MBZk-25" edge="1">
          <mxGeometry relative="1" as="geometry" />
        </mxCell>
        <mxCell id="1hcTGLioYm_f8Yc_MBZk-20" value="&lt;ul&gt;&lt;li&gt;inc object counter&lt;/li&gt;&lt;li&gt;calibrate sensor&lt;/li&gt;&lt;li&gt;sensor state = INIT&lt;/li&gt;&lt;/ul&gt;" style="whiteSpace=wrap;html=1;align=left;" parent="1" vertex="1">
          <mxGeometry x="400" y="670" width="200" height="60" as="geometry" />
        </mxCell>
        <mxCell id="1hcTGLioYm_f8Yc_MBZk-26" value="" style="edgeStyle=orthogonalEdgeStyle;rounded=0;orthogonalLoop=1;jettySize=auto;html=1;" parent="1" source="1hcTGLioYm_f8Yc_MBZk-22" target="1hcTGLioYm_f8Yc_MBZk-25" edge="1">
          <mxGeometry relative="1" as="geometry" />
        </mxCell>
        <mxCell id="1hcTGLioYm_f8Yc_MBZk-22" value="&lt;ul&gt;&lt;li&gt;object_detect_state = IDLE&lt;/li&gt;&lt;/ul&gt;" style="whiteSpace=wrap;html=1;rounded=0;align=left;" parent="1" vertex="1">
          <mxGeometry x="400" y="937" width="200" height="60" as="geometry" />
        </mxCell>
        <mxCell id="1hcTGLioYm_f8Yc_MBZk-25" value="return" style="whiteSpace=wrap;html=1;align=center;rounded=0;" parent="1" vertex="1">
          <mxGeometry x="720" y="937" width="120" height="60" as="geometry" />
        </mxCell>
        <mxCell id="1hcTGLioYm_f8Yc_MBZk-34" value="YES" style="edgeStyle=orthogonalEdgeStyle;rounded=0;orthogonalLoop=1;jettySize=auto;html=1;" parent="1" source="1hcTGLioYm_f8Yc_MBZk-30" target="1hcTGLioYm_f8Yc_MBZk-33" edge="1">
          <mxGeometry relative="1" as="geometry" />
        </mxCell>
        <mxCell id="1hcTGLioYm_f8Yc_MBZk-35" value="NO" style="edgeStyle=orthogonalEdgeStyle;rounded=0;orthogonalLoop=1;jettySize=auto;html=1;exitX=0.5;exitY=1;exitDx=0;exitDy=0;entryX=0;entryY=0.5;entryDx=0;entryDy=0;" parent="1" source="1hcTGLioYm_f8Yc_MBZk-30" target="1hcTGLioYm_f8Yc_MBZk-22" edge="1">
          <mxGeometry x="-0.6791" relative="1" as="geometry">
            <mxPoint as="offset" />
          </mxGeometry>
        </mxCell>
        <mxCell id="1hcTGLioYm_f8Yc_MBZk-30" value="delta &amp;lt; reference?" style="rhombus;whiteSpace=wrap;html=1;" parent="1" vertex="1">
          <mxGeometry x="240" y="820" width="80" height="80" as="geometry" />
        </mxCell>
        <mxCell id="1hcTGLioYm_f8Yc_MBZk-33" value="&lt;ul style=&quot;border-color: var(--border-color);&quot;&gt;&lt;li style=&quot;border-color: var(--border-color);&quot;&gt;inc object counter&lt;/li&gt;&lt;li style=&quot;border-color: var(--border-color);&quot;&gt;calibrate sensor&lt;/li&gt;&lt;li style=&quot;border-color: var(--border-color);&quot;&gt;sensor state = INIT&lt;/li&gt;&lt;/ul&gt;" style="whiteSpace=wrap;html=1;align=left;" parent="1" vertex="1">
          <mxGeometry x="400" y="830" width="200" height="60" as="geometry" />
        </mxCell>
        <mxCell id="1hcTGLioYm_f8Yc_MBZk-38" style="edgeStyle=orthogonalEdgeStyle;rounded=0;orthogonalLoop=1;jettySize=auto;html=1;exitX=0.5;exitY=1;exitDx=0;exitDy=0;entryX=0.5;entryY=0;entryDx=0;entryDy=0;" parent="1" source="1hcTGLioYm_f8Yc_MBZk-36" target="1hcTGLioYm_f8Yc_MBZk-15" edge="1">
          <mxGeometry relative="1" as="geometry" />
        </mxCell>
        <mxCell id="1hcTGLioYm_f8Yc_MBZk-40" value="WAIT_TIME" style="edgeStyle=orthogonalEdgeStyle;rounded=0;orthogonalLoop=1;jettySize=auto;html=1;" parent="1" source="1hcTGLioYm_f8Yc_MBZk-36" target="1hcTGLioYm_f8Yc_MBZk-39" edge="1">
          <mxGeometry relative="1" as="geometry" />
        </mxCell>
        <mxCell id="1hcTGLioYm_f8Yc_MBZk-36" value="case:&lt;br&gt;object_detect_state?" style="rhombus;whiteSpace=wrap;html=1;rounded=0;" parent="1" vertex="1">
          <mxGeometry x="60" y="490" width="80" height="80" as="geometry" />
        </mxCell>
        <mxCell id="1hcTGLioYm_f8Yc_MBZk-41" style="edgeStyle=orthogonalEdgeStyle;rounded=0;orthogonalLoop=1;jettySize=auto;html=1;exitX=1;exitY=0.5;exitDx=0;exitDy=0;entryX=0;entryY=0.5;entryDx=0;entryDy=0;" parent="1" source="1hcTGLioYm_f8Yc_MBZk-39" target="1hcTGLioYm_f8Yc_MBZk-25" edge="1">
          <mxGeometry relative="1" as="geometry" />
        </mxCell>
        <mxCell id="1hcTGLioYm_f8Yc_MBZk-39" value="&lt;ul&gt;&lt;li&gt;do nothing&lt;/li&gt;&lt;/ul&gt;" style="whiteSpace=wrap;html=1;rounded=0;align=left;" parent="1" vertex="1">
          <mxGeometry x="400" y="500" width="200" height="60" as="geometry" />
        </mxCell>
      </root>
    </mxGraphModel>
  </diagram>
</mxfile>
